<svg width="1280" height="287" viewBox="0 0 1280 287" fill="none" xmlns="http://www.w3.org/2000/svg">
<path d="M923.3 9.03711H1017.96V19.8995C1009.25 20.6824 1003.5 22.5417 1000.7 25.4775C998.075 28.4133 996.76 32.6213 996.76 38.1014C996.76 44.1687 998.157 51.5082 1000.95 60.1199L1049.27 214.836L1097.83 88.8906L1085.01 49.2574C1081.07 37.5143 1075.89 29.3919 1069.48 24.8904C1065.86 22.1503 1059.13 20.4867 1049.27 19.8995V9.03711H1156.74V19.8995C1144.91 20.4867 1136.53 23.031 1131.6 27.5326C1128.31 30.6641 1126.67 35.6549 1126.67 42.5051C1126.67 46.4195 1127.33 50.4318 1128.64 54.5419L1179.92 208.964L1227.49 60.1199C1230.78 49.551 1232.42 41.1351 1232.42 34.8721C1232.42 31.1534 1230.78 27.8262 1227.49 24.8904C1224.37 21.9546 1218.13 20.291 1208.76 19.8995V9.03711H1280V19.8995C1265.7 22.4439 1255.18 33.9913 1248.45 54.5419L1173.01 286.176H1162.91L1106.46 114.432L1040.64 286.176H1031.52L959.044 60.1199C954.278 45.8324 949.594 36.2421 944.993 31.3491C940.391 26.2604 933.16 22.4439 923.3 19.8995V9.03711Z" fill="black"/>
<path d="M834.35 109.818C834.266 149.86 838.433 181.264 846.852 204.033C855.271 226.801 865.163 238.185 876.528 238.185C884.105 238.185 890.671 233.377 896.228 223.759C901.868 213.945 906.583 197.261 910.371 173.708L914.286 179.596C912.518 206.486 907.382 231.021 898.879 253.201C890.377 275.184 879.727 286.176 866.931 286.176C853.04 286.176 841.127 273.614 831.193 248.49C821.343 223.17 816.418 189.214 816.418 146.621C816.418 100.495 821.47 64.576 831.572 38.8634C841.759 12.9545 854.513 0 869.835 0C882.8 0 893.449 10.0103 901.784 30.0308C910.118 49.855 914.286 76.4509 914.286 109.818H834.35ZM834.35 92.7421H887.893C887.472 75.4695 886.588 63.3002 885.241 56.2341C883.137 45.2425 879.98 36.6062 875.77 30.3252C871.645 24.0443 867.309 20.9038 862.763 20.9038C855.776 20.9038 849.504 27.2829 843.948 40.0411C838.475 52.603 835.276 70.17 834.35 92.7421Z" fill="black"/>
<path d="M765.748 241.256C753.964 262.873 746.567 275.367 743.558 278.739C739.045 283.697 734.239 286.176 729.141 286.176C721.201 286.176 714.64 279.73 709.458 266.84C704.36 253.949 701.811 236.992 701.811 215.971C701.811 202.683 703.064 191.18 705.572 181.463C708.999 167.977 714.933 155.285 723.374 143.385C731.899 131.486 746.024 117.009 765.748 99.9533V89.244C765.748 62.0742 763.91 43.4321 760.232 33.3178C756.638 23.2034 751.373 18.1463 744.436 18.1463C739.17 18.1463 734.991 21.5177 731.899 28.2606C728.723 35.0035 727.135 42.738 727.135 51.464L727.386 68.7179C727.386 77.8406 726.383 84.881 724.377 89.839C722.455 94.797 719.906 97.276 716.73 97.276C713.637 97.276 711.088 94.6978 709.082 89.5415C707.16 84.3852 706.199 77.3448 706.199 68.4204C706.199 51.3649 709.876 35.6976 717.231 21.4186C724.586 7.13952 734.908 0 748.197 0C758.393 0 766.751 4.06556 773.27 12.1967C778.201 18.3446 781.837 27.9631 784.177 41.0522C785.682 49.58 786.434 67.0322 786.434 93.4087V185.925C786.434 211.905 786.643 227.87 787.061 233.819C787.479 239.571 788.147 243.438 789.067 245.421C790.07 247.404 791.198 248.396 792.452 248.396C793.789 248.396 794.959 247.702 795.962 246.313C797.717 243.735 801.102 236.497 806.117 224.597V241.256C796.756 271.004 787.813 285.878 779.288 285.878C775.193 285.878 771.933 282.507 769.509 275.764C767.086 269.021 765.832 257.519 765.748 241.256ZM765.748 221.92V118.1C753.128 129.999 744.979 138.427 741.302 143.385C734.699 152.111 729.977 161.234 727.135 170.754C724.293 180.273 722.873 190.685 722.873 201.989C722.873 216.268 724.669 228.167 728.263 237.687C731.857 247.008 735.994 251.668 740.675 251.668C747.027 251.668 755.385 241.752 765.748 221.92Z" fill="black"/>
<path d="M563.366 24.4524L598.886 0.828894H603.673V45.1747C609.635 28.4587 615.597 16.7851 621.559 10.154C627.605 3.38465 633.945 0 640.579 0C652.167 0 661.824 7.46005 669.549 22.3801C679.038 40.6158 683.783 64.3775 683.783 93.6651C683.783 126.406 678.072 153.484 666.652 174.897C657.247 192.442 645.407 201.214 631.132 201.214C624.918 201.214 619.544 199.764 615.009 196.862C611.65 194.79 607.872 190.646 603.673 184.429V242.244C603.673 255.23 604.135 263.45 605.058 266.904C606.066 270.496 607.746 273.328 610.097 275.4C612.532 277.472 616.899 278.509 623.196 278.509V286.176H562.736V278.509H565.885C570.504 278.647 574.45 277.196 577.725 274.157C579.321 272.637 580.538 270.151 581.378 266.697C582.302 263.381 582.764 254.816 582.764 241.001V61.5454C582.764 49.2501 582.428 41.4447 581.756 38.1291C581.084 34.8136 579.993 32.3269 578.481 30.6691C577.054 29.0113 575.08 28.1824 572.561 28.1824C570.546 28.1824 567.985 29.1495 564.878 31.0835L563.366 24.4524ZM603.673 57.4009V128.271C603.673 143.606 604.051 153.691 604.807 158.526C605.982 166.539 608.837 173.584 613.372 179.663C617.99 185.741 623.784 188.781 630.754 188.781C639.151 188.781 645.953 183.393 651.159 172.617C657.961 158.526 661.362 138.702 661.362 113.144C661.362 84.1328 657.499 61.8217 649.774 46.2109C644.4 35.4352 638.018 30.0474 630.628 30.0474C626.597 30.0474 622.609 31.7052 618.662 35.0208C615.639 37.5075 610.643 44.9675 603.673 57.4009Z" fill="black"/>
<path d="M499.763 0C517.135 0 531.082 15.5221 541.606 46.5662C550.542 73.0912 555.01 103.546 555.01 137.93C555.01 162.098 552.546 186.559 547.619 211.316C542.691 236.073 535.885 254.739 527.199 267.314C518.596 279.888 508.992 286.176 498.385 286.176C481.097 286.176 467.358 269.966 457.169 237.547C448.567 210.236 444.266 179.584 444.266 145.593C444.266 120.836 446.855 96.2761 452.033 71.9123C457.294 47.3521 464.185 29.2758 472.703 17.6834C481.222 5.89445 490.242 0 499.763 0ZM495.88 19.157C491.453 19.157 486.985 22.3007 482.475 28.5881C478.049 34.679 474.457 45.4855 471.701 61.0076C468.945 76.5297 467.567 96.4726 467.567 120.836C467.567 160.133 470.866 194.026 477.464 222.516C484.145 251.006 492.915 265.25 503.772 265.25C511.873 265.25 518.555 257.391 523.816 241.673C529.078 225.954 531.709 198.938 531.709 160.624C531.709 112.682 527.324 74.9578 518.555 47.4504C512.625 28.5881 505.067 19.157 495.88 19.157Z" fill="black"/>
<path d="M391.303 0V62.5156C400.857 20.8385 410.66 0 420.713 0C425.282 0 429.062 3.43937 432.053 10.3181C435.044 16.9945 436.539 24.7837 436.539 33.6856C436.539 41.5759 435.459 48.2523 433.299 53.7149C431.139 59.1774 428.564 61.9087 425.573 61.9087C422.665 61.9087 419.383 58.4693 415.728 51.5905C412.156 44.5095 409.497 40.969 407.752 40.969C406.257 40.969 404.637 42.9921 402.892 47.0384C399.154 55.3334 395.29 68.9897 391.303 88.0074V221.232C391.303 236.608 392.092 248.242 393.67 256.132C394.75 261.594 396.661 266.147 399.403 269.788C402.145 273.43 406.091 275.251 411.242 275.251V286.176H352.796V275.251C358.611 275.251 362.931 273.025 365.756 268.574C367.833 265.337 369.287 260.178 370.118 253.097C370.533 249.658 370.741 239.845 370.741 223.66V115.927C370.741 83.5564 370.45 64.3364 369.868 58.267C369.37 51.9952 368.373 47.4431 366.877 44.6106C365.465 41.7782 363.679 40.362 361.519 40.362C358.943 40.362 356.036 41.8794 352.796 44.9141L351.549 33.9891L386.069 0H391.303Z" fill="black"/>
<path d="M285.025 0.293945C302.463 0.293945 316.464 15.7873 327.027 46.774C335.998 73.2499 340.483 103.648 340.483 137.969C340.483 162.092 338.01 186.508 333.063 211.219C328.117 235.93 321.284 254.561 312.565 267.113C303.93 279.664 294.289 285.94 283.642 285.94C266.288 285.94 252.497 269.76 242.269 237.401C233.633 210.141 229.316 179.546 229.316 145.618C229.316 120.907 231.915 96.3919 237.113 72.0732C242.394 47.5585 249.311 29.5156 257.862 17.9446C266.414 6.17749 275.468 0.293945 285.025 0.293945ZM281.127 19.4155C276.683 19.4155 272.198 22.5534 267.671 28.8292C263.228 34.9088 259.623 45.6953 256.856 61.1887C254.09 76.682 252.706 96.588 252.706 120.907C252.706 160.13 256.018 193.961 262.641 222.398C269.348 250.835 278.151 265.054 289.049 265.054C297.181 265.054 303.888 257.209 309.17 241.519C314.452 225.83 317.093 198.864 317.093 160.621C317.093 112.768 312.691 75.1131 303.888 47.6565C297.936 28.8292 290.349 19.4155 281.127 19.4155Z" fill="black"/>
<path d="M0 9.03711H94.9359V19.8995H88.7684C83.0414 19.8995 78.636 21.7589 75.5523 25.4775C72.6153 29.1962 71.1469 34.187 71.1469 40.4501C71.1469 47.3002 72.6888 55.4226 75.7725 64.8171L122.69 213.368L169.827 59.2391C173.205 48.2788 174.894 39.9608 174.894 34.2849C174.894 31.5448 174.306 29.2941 173.131 27.5326C171.516 24.5968 169.46 22.6396 166.964 21.661C164.467 20.4867 159.401 19.8995 151.765 19.8995V9.03711H217.626V19.8995C209.99 20.6824 204.703 22.7375 201.766 26.0647C196.627 31.9363 192.001 41.7222 187.889 55.4226L116.302 286.176H107.271L35.243 59.2391C32.0124 48.6703 28.9287 41.1351 25.9917 36.6335C23.0548 31.9363 19.3102 28.0219 14.758 24.8904C12.2616 23.1289 7.3423 21.4653 0 19.8995V9.03711Z" fill="black"/>
</svg>
